<svg xmlns="http://www.w3.org/2000/svg" version="1.1" xmlns:xlink="http://www.w3.org/1999/xlink" viewBox="0 0 200 200" width="200" height="200"><rect width="200" height="200" fill="url('#gradient')"></rect><defs><linearGradient id="gradient" gradientTransform="rotate(240 0.5 0.5)"><stop offset="0%" stop-color="#007dff"></stop><stop offset="100%" stop-color="#ffff60"></stop></linearGradient></defs><g><g fill="#ffffff" transform="matrix(1.7010555459422045,0,0,1.7010555459422045,2.933717436397714,109.13576128290153)" stroke="#5c5c5c" stroke-width="0.15"><path d="M8.41-3.78L8.41-3.78Q8.41-4.53 7.88-4.95Q7.34-5.37 6.01-5.82Q4.67-6.27 3.82-6.69L3.82-6.69Q1.05-8.05 1.05-10.42L1.05-10.42Q1.05-11.60 1.74-12.50Q2.43-13.41 3.69-13.91Q4.95-14.41 6.52-14.41L6.52-14.41Q8.06-14.41 9.27-13.87Q10.49-13.32 11.16-12.31Q11.84-11.30 11.84-10L11.84-10L8.42-10Q8.42-10.87 7.89-11.35Q7.35-11.83 6.45-11.83L6.45-11.83Q5.53-11.83 5.00-11.42Q4.46-11.02 4.46-10.39L4.46-10.39Q4.46-9.84 5.05-9.40Q5.63-8.96 7.11-8.48Q8.58-8.01 9.53-7.46L9.53-7.46Q11.84-6.13 11.84-3.80L11.84-3.80Q11.84-1.93 10.43-0.87Q9.02 0.20 6.57 0.20L6.57 0.20Q4.84 0.20 3.44-0.42Q2.04-1.04 1.33-2.12Q0.63-3.20 0.63-4.61L0.63-4.61L4.06-4.61Q4.06-3.47 4.65-2.92Q5.24-2.38 6.57-2.38L6.57-2.38Q7.42-2.38 7.92-2.75Q8.41-3.12 8.41-3.78ZM19.99 0L17.69-3.94L16.76-3.01L16.76 0L13.47 0L13.47-15.01L16.76-15.01L16.76-7.04L17.09-7.48L19.57-10.57L23.52-10.57L19.81-6.22L23.76 0L19.99 0ZM26.93-10.57L28.60-4.61L30.36-10.57L33.89-10.57L29.58 1.77L29.39 2.22Q28.48 4.27 26.15 4.27L26.15 4.27Q25.51 4.27 24.79 4.07L24.79 4.07L24.79 1.72L25.22 1.72Q25.92 1.72 26.28 1.52Q26.65 1.32 26.83 0.80L26.83 0.80L27.09 0.10L23.42-10.57L26.93-10.57ZM42.99-4.81L46.40-4.81Q46.33-3.33 45.60-2.19Q44.86-1.05 43.54-0.43Q42.22 0.20 40.52 0.20L40.52 0.20Q37.71 0.20 36.10-1.63Q34.49-3.46 34.49-6.79L34.49-6.79L34.49-7.49Q34.49-9.58 35.22-11.15Q35.95-12.71 37.31-13.57Q38.68-14.42 40.48-14.42L40.48-14.42Q43.07-14.42 44.64-13.06Q46.21-11.70 46.43-9.31L46.43-9.31L43.01-9.31Q42.97-10.61 42.35-11.17Q41.74-11.74 40.48-11.74L40.48-11.74Q39.20-11.74 38.60-10.78Q38.01-9.82 37.98-7.72L37.98-7.72L37.98-6.72Q37.98-4.44 38.55-3.47Q39.12-2.49 40.52-2.49L40.52-2.49Q41.70-2.49 42.32-3.05Q42.95-3.60 42.99-4.81L42.99-4.81ZM57.11 0L53.82 0Q53.64-0.32 53.51-0.95L53.51-0.95Q52.60 0.20 50.97 0.20L50.97 0.20Q49.47 0.20 48.43-0.71Q47.38-1.61 47.38-2.98L47.38-2.98Q47.38-4.70 48.65-5.58Q49.92-6.46 52.34-6.46L52.34-6.46L53.36-6.46L53.36-7.01Q53.36-8.47 52.10-8.47L52.10-8.47Q50.93-8.47 50.93-7.31L50.93-7.31L47.64-7.31Q47.64-8.85 48.94-9.80Q50.24-10.76 52.27-10.76Q54.29-10.76 55.46-9.78Q56.63-8.79 56.66-7.07L56.66-7.07L56.66-2.39Q56.68-0.94 57.11-0.17L57.11-0.17L57.11 0ZM51.76-2.15L51.76-2.15Q52.37-2.15 52.78-2.41Q53.18-2.68 53.36-3.01L53.36-3.01L53.36-4.70L52.40-4.70Q50.68-4.70 50.68-3.15L50.68-3.15Q50.68-2.71 50.99-2.43Q51.29-2.15 51.76-2.15ZM64.01-2.97L64.01-2.97Q64.01-3.39 63.57-3.64Q63.13-3.90 61.90-4.17Q60.67-4.44 59.87-4.89Q59.07-5.33 58.65-5.97Q58.23-6.60 58.23-7.42L58.23-7.42Q58.23-8.88 59.43-9.82Q60.63-10.76 62.58-10.76L62.58-10.76Q64.67-10.76 65.94-9.81Q67.21-8.87 67.21-7.32L67.21-7.32L63.91-7.32Q63.91-8.59 62.57-8.59L62.57-8.59Q62.05-8.59 61.70-8.31Q61.35-8.02 61.35-7.59L61.35-7.59Q61.35-7.15 61.78-6.88Q62.21-6.60 63.15-6.43Q64.09-6.25 64.80-6.01L64.80-6.01Q67.19-5.19 67.19-3.07L67.19-3.07Q67.19-1.62 65.90-0.71Q64.62 0.20 62.58 0.20L62.58 0.20Q61.22 0.20 60.16-0.29Q59.09-0.78 58.50-1.62Q57.90-2.46 57.90-3.39L57.90-3.39L60.98-3.39Q61.00-2.66 61.46-2.32Q61.93-1.98 62.67-1.98L62.67-1.98Q63.34-1.98 63.68-2.26Q64.01-2.53 64.01-2.97ZM69.27-13.19L72.56-13.19L72.56-10.57L74.30-10.57L74.30-8.28L72.56-8.28L72.56-3.45Q72.56-2.85 72.77-2.62Q72.99-2.38 73.62-2.38L73.62-2.38Q74.11-2.38 74.44-2.44L74.44-2.44L74.44-0.09Q73.55 0.20 72.59 0.20L72.59 0.20Q70.89 0.20 70.08-0.61Q69.27-1.41 69.27-3.04L69.27-3.04L69.27-8.28L67.92-8.28L67.92-10.57L69.27-10.57L69.27-13.19ZM87.00-7.40L87.00-4.85L81.13-4.85L81.13-7.40L87.00-7.40ZM98.35-14.22L98.35 0L94.93 0L94.93-14.22L98.35-14.22ZM109.81 0L108.98-2.66L104.29-2.66L103.47 0L99.80 0L105.02-14.22L108.24-14.22L113.50 0L109.81 0ZM106.63-10.23L105.11-5.30L108.16-5.30L106.63-10.23Z"></path></g></g></svg>